<svg width="156" height="69" viewBox="0 0 156 69" fill="none" xmlns="http://www.w3.org/2000/svg">
<path d="M16.378 23.576H8.826L7.706 27H0.25L8.538 4.344H16.73L24.986 27H17.498L16.378 23.576ZM14.65 18.232L12.602 11.928L10.554 18.232H14.65ZM33.704 3.32V27H26.6V3.32H33.704ZM40.4965 7.512C39.2592 7.512 38.2672 7.18133 37.5205 6.52C36.7738 5.85867 36.4005 5.02667 36.4005 4.024C36.4005 3 36.7738 2.15733 37.5205 1.496C38.2672 0.813332 39.2592 0.471998 40.4965 0.471998C41.7125 0.471998 42.6938 0.813332 43.4405 1.496C44.1872 2.15733 44.5605 3 44.5605 4.024C44.5605 5.02667 44.1872 5.85867 43.4405 6.52C42.6938 7.18133 41.7125 7.512 40.4965 7.512ZM44.0165 8.952V27H36.9125V8.952H44.0165ZM71.321 8.824C73.625 8.824 75.4063 9.51733 76.665 10.904C77.945 12.2907 78.585 14.168 78.585 16.536V27H71.513V17.432C71.513 16.664 71.2783 16.0667 70.809 15.64C70.361 15.192 69.753 14.968 68.985 14.968C68.1957 14.968 67.577 15.192 67.129 15.64C66.681 16.0667 66.457 16.664 66.457 17.432V27H59.385V17.432C59.385 16.664 59.1503 16.0667 58.681 15.64C58.233 15.192 57.625 14.968 56.857 14.968C56.0677 14.968 55.449 15.192 55.001 15.64C54.553 16.0667 54.329 16.664 54.329 17.432V27H47.225V8.952H54.329V11.384C54.841 10.616 55.5343 9.99733 56.409 9.528C57.305 9.05867 58.3503 8.824 59.545 8.824C60.8463 8.824 61.9983 9.112 63.001 9.688C64.0037 10.2427 64.8037 11.032 65.401 12.056C66.0623 11.1173 66.905 10.3493 67.929 9.752C68.953 9.13333 70.0837 8.824 71.321 8.824ZM99.1345 17.816C99.1345 18.3067 99.1025 18.776 99.0385 19.224H87.6145C87.7212 20.7813 88.3718 21.56 89.5665 21.56C90.3345 21.56 90.8892 21.208 91.2305 20.504H98.7505C98.4945 21.784 97.9505 22.936 97.1185 23.96C96.3078 24.9627 95.2732 25.7627 94.0145 26.36C92.7772 26.936 91.4118 27.224 89.9185 27.224C88.1265 27.224 86.5265 26.8507 85.1185 26.104C83.7318 25.3573 82.6438 24.2907 81.8545 22.904C81.0865 21.496 80.7025 19.8533 80.7025 17.976C80.7025 16.0987 81.0865 14.4667 81.8545 13.08C82.6438 11.672 83.7318 10.5947 85.1185 9.848C86.5265 9.10133 88.1265 8.728 89.9185 8.728C91.7105 8.728 93.2998 9.10133 94.6865 9.848C96.0945 10.5733 97.1825 11.6187 97.9505 12.984C98.7398 14.3493 99.1345 15.96 99.1345 17.816ZM91.9345 16.12C91.9345 15.5227 91.7425 15.0747 91.3585 14.776C90.9745 14.456 90.4945 14.296 89.9185 14.296C88.6598 14.296 87.9238 14.904 87.7105 16.12H91.9345ZM114.021 8.824C116.091 8.824 117.701 9.51733 118.853 10.904C120.027 12.2907 120.613 14.168 120.613 16.536V27H113.541V17.432C113.541 16.5787 113.307 15.9067 112.837 15.416C112.389 14.904 111.781 14.648 111.013 14.648C110.224 14.648 109.605 14.904 109.157 15.416C108.709 15.9067 108.485 16.5787 108.485 17.432V27H101.381V8.952H108.485V11.704C109.04 10.8507 109.776 10.1573 110.693 9.624C111.632 9.09067 112.741 8.824 114.021 8.824ZM134.926 20.952V27H132.238C127.288 27 124.814 24.536 124.814 19.608V14.872H122.574V8.952H124.814V4.6H131.918V8.952H134.862V14.872H131.918V19.736C131.918 20.1627 132.014 20.472 132.206 20.664C132.419 20.856 132.76 20.952 133.23 20.952H134.926ZM155.103 17.816C155.103 18.3067 155.071 18.776 155.007 19.224H143.583C143.69 20.7813 144.341 21.56 145.535 21.56C146.303 21.56 146.858 21.208 147.199 20.504H154.719C154.463 21.784 153.919 22.936 153.087 23.96C152.277 24.9627 151.242 25.7627 149.983 26.36C148.746 26.936 147.381 27.224 145.887 27.224C144.095 27.224 142.495 26.8507 141.087 26.104C139.701 25.3573 138.613 24.2907 137.823 22.904C137.055 21.496 136.671 19.8533 136.671 17.976C136.671 16.0987 137.055 14.4667 137.823 13.08C138.613 11.672 139.701 10.5947 141.087 9.848C142.495 9.10133 144.095 8.728 145.887 8.728C147.679 8.728 149.269 9.10133 150.655 9.848C152.063 10.5733 153.151 11.6187 153.919 12.984C154.709 14.3493 155.103 15.96 155.103 17.816ZM147.903 16.12C147.903 15.5227 147.711 15.0747 147.327 14.776C146.943 14.456 146.463 14.296 145.887 14.296C144.629 14.296 143.893 14.904 143.679 16.12H147.903ZM16.6453 59.336C16.6879 59.8907 16.7626 60.392 16.8693 60.84C16.8266 60.968 16.6346 61.096 16.2933 61.224C15.9733 61.352 15.6959 61.416 15.4613 61.416C14.6933 61.416 14.1386 61.2987 13.7973 61.064C13.4773 60.8507 13.3173 60.52 13.3173 60.072C13.3173 59.6453 13.3599 59.2187 13.4453 58.792C12.9759 59.432 12.2826 59.9653 11.3653 60.392C10.4693 60.7973 9.74392 61 9.18925 61C7.75992 61 6.56525 60.584 5.60525 59.752C4.66658 58.92 4.19725 57.5867 4.19725 55.752C4.19725 54.024 4.60258 52.4027 5.41325 50.888C6.24525 49.352 7.38658 48.1253 8.83725 47.208C10.2879 46.2693 11.8986 45.8 13.6693 45.8C14.0106 45.8 14.4586 45.896 15.0133 46.088C15.5679 46.2587 16.1226 46.568 16.6773 47.016C17.2533 47.4427 17.7333 47.9973 18.1173 48.68C18.2879 48.68 18.4906 48.7653 18.7253 48.936C18.9599 49.1067 19.0773 49.2773 19.0773 49.448C19.0773 49.64 19.0453 49.832 18.9813 50.024L16.6453 59.336ZM15.2053 50.376C15.0773 49.9067 14.8213 49.512 14.4373 49.192C14.0746 48.872 13.7439 48.712 13.4453 48.712C12.4639 48.712 11.5359 49.064 10.6613 49.768C9.80792 50.4507 9.11458 51.304 8.58125 52.328C8.04792 53.352 7.78125 54.3227 7.78125 55.24C7.78125 56.136 7.88792 56.872 8.10125 57.448C8.31458 58.024 8.73058 58.312 9.34925 58.312C9.88258 58.312 10.4906 58.152 11.1733 57.832C11.8773 57.512 12.4959 57.0853 13.0293 56.552C13.5839 55.9973 13.9466 55.4213 14.1173 54.824L15.2053 50.376ZM30.5883 46.376C30.5243 46.312 30.4923 46.2373 30.4923 46.152C30.4923 45.9387 30.7269 45.768 31.1963 45.64C31.6656 45.4907 32.3163 45.416 33.1483 45.416C33.8949 45.416 34.3963 45.6293 34.6523 46.056C34.9083 46.4613 35.0683 46.9947 35.1323 47.656C35.0896 47.8267 35.0469 48.0613 35.0043 48.36L34.8443 49.128C35.4629 48.4027 36.3803 47.6987 37.5963 47.016C38.8123 46.312 39.7616 45.96 40.4443 45.96C41.5109 45.96 42.2469 46.152 42.6523 46.536C43.0789 46.8987 43.3243 47.6027 43.3883 48.648C44.1776 47.9013 45.0843 47.272 46.1083 46.76C47.1323 46.2267 48.0283 45.96 48.7963 45.96C49.6069 45.96 50.3536 46.1307 51.0363 46.472C51.7189 46.792 52.0603 47.3147 52.0603 48.04C52.0603 48.232 52.0496 48.3813 52.0283 48.488C51.9643 48.8293 51.8363 49.3093 51.6443 49.928C51.4736 50.5253 51.3456 50.9627 51.2603 51.24C50.7269 52.968 50.3109 54.4293 50.0123 55.624C49.7349 56.7973 49.5643 57.9493 49.5003 59.08L49.9483 60.648C49.6923 61.1387 49.3296 61.5227 48.8603 61.8C48.4123 62.0987 47.7509 62.248 46.8763 62.248C46.3643 62.248 45.9909 62.0773 45.7563 61.736C45.5216 61.3947 45.4043 60.968 45.4043 60.456C45.4043 60.3493 45.4149 60.232 45.4363 60.104C45.4576 59.976 45.4683 59.8587 45.4683 59.752C45.5109 58.5573 45.6816 57.352 45.9803 56.136C46.3003 54.8987 46.7056 53.512 47.1963 51.976C47.6443 50.632 47.8683 49.8107 47.8683 49.512C47.8683 49.384 47.8469 49.256 47.8043 49.128C47.7829 48.9787 47.7509 48.904 47.7083 48.904C47.2176 48.904 46.4069 49.1387 45.2763 49.608C44.1669 50.0773 43.4203 50.5467 43.0363 51.016C42.6309 52.3173 41.9589 55.0267 41.0203 59.144L40.8283 60.04C40.7216 60.5947 40.6149 60.9787 40.5083 61.192C40.4229 61.4053 40.2416 61.5653 39.9643 61.672C39.6869 61.7787 39.2389 61.832 38.6203 61.832C37.1483 61.832 36.4123 61.5333 36.4123 60.936C36.5829 60.4667 37.0523 58.664 37.8203 55.528C38.2896 53.5867 38.8229 51.4427 39.4203 49.096C39.2923 49.16 39.0576 49.256 38.7163 49.384C37.6923 49.7893 36.7963 50.2053 36.0283 50.632C35.2816 51.0587 34.6736 51.56 34.2043 52.136L33.3723 55.528C33.2443 56.04 33.1269 56.52 33.0203 56.968C32.9136 57.3947 32.8176 57.7573 32.7323 58.056C32.6256 58.4187 32.5509 58.9093 32.5083 59.528C32.4656 59.9547 32.4016 60.264 32.3163 60.456C32.2523 60.648 32.0709 60.808 31.7723 60.936C31.4949 61.0427 31.0469 61.096 30.4283 61.096C29.7243 61.096 29.1909 61.0213 28.8283 60.872C28.4656 60.7227 28.2843 60.4027 28.2843 59.912C28.2843 59.6773 28.5509 58.4293 29.0843 56.168C29.6389 53.9067 30.3856 50.9627 31.3243 47.336L30.5883 46.376ZM66.1268 60.904C66.0414 61.2667 65.8494 61.512 65.5508 61.64C65.2521 61.7893 64.8574 61.864 64.3668 61.864C62.8948 61.864 62.1588 61.5333 62.1588 60.872L62.3508 59.656C61.6254 60.3387 60.9108 60.84 60.2068 61.16C59.5241 61.5013 58.7454 61.672 57.8708 61.672C56.6334 61.672 55.5881 61.3413 54.7348 60.68C53.9028 59.9973 53.4868 58.792 53.4868 57.064C53.4868 56.6373 53.5508 56.168 53.6788 55.656L55.8228 47.112C55.9508 46.6427 56.1748 46.3013 56.4948 46.088C56.8361 45.8533 57.3801 45.736 58.1268 45.736C59.2361 45.736 59.7908 46.0453 59.7908 46.664C59.7908 46.92 59.7161 47.3253 59.5668 47.88L57.4227 56.456C57.3588 56.712 57.3268 56.968 57.3268 57.224C57.3268 57.672 57.4441 58.0347 57.6788 58.312C57.9134 58.5893 58.2868 58.728 58.7988 58.728C59.4814 58.728 60.2494 58.536 61.1028 58.152C61.9561 57.7467 62.6388 57.2773 63.1508 56.744L63.9828 53.512C64.8574 50.056 65.3694 48.0507 65.5188 47.496C65.6468 47.0267 65.7641 46.6853 65.8708 46.472C65.9988 46.2373 66.2121 46.0667 66.5108 45.96C66.8094 45.832 67.2574 45.768 67.8548 45.768C68.9854 45.768 69.5508 46.1093 69.5508 46.792C69.5508 46.8987 69.5188 47.0373 69.4548 47.208C69.4121 47.3573 69.3801 47.4853 69.3588 47.592L68.0788 52.776C67.0548 56.8933 66.4041 59.6027 66.1268 60.904ZM79.571 45.96C80.1257 45.96 80.6377 46.0667 81.107 46.28C81.5977 46.4933 81.9923 46.7813 82.291 47.144C82.6963 45.5867 83.0483 44.2747 83.347 43.208C83.923 41.1813 84.339 39.6027 84.595 38.472C84.6803 38.1307 84.9043 37.864 85.267 37.672C85.6297 37.48 86.035 37.384 86.483 37.384C86.867 37.384 87.283 37.4693 87.731 37.64C88.179 37.8107 88.403 38.056 88.403 38.376C87.5923 41.576 86.6963 44.9893 85.715 48.616C84.307 53.9067 83.4323 57.352 83.091 58.952C83.091 59.656 83.1443 60.1573 83.251 60.456C83.1017 60.84 82.7497 61.096 82.195 61.224C81.6617 61.3733 81.1923 61.448 80.787 61.448C80.403 61.448 80.147 61.352 80.019 61.16C79.9123 60.9893 79.8163 60.7227 79.731 60.36C79.6457 59.9973 79.5923 59.752 79.571 59.624C78.6537 60.2427 77.715 60.712 76.755 61.032C75.8163 61.3733 75.027 61.544 74.387 61.544C73.8323 61.544 73.203 61.3627 72.499 61C71.8163 60.6373 71.2297 60.1467 70.739 59.528C70.2483 58.9093 70.003 58.2267 70.003 57.48C70.003 56.2853 70.3977 54.76 71.187 52.904C71.9763 51.048 73.0857 49.4267 74.515 48.04C75.9657 46.6533 77.651 45.96 79.571 45.96ZM79.635 56.936C79.827 56.5307 80.019 55.9653 80.211 55.24C80.403 54.5147 80.595 53.768 80.787 53C81.0217 51.8907 81.299 50.792 81.619 49.704C81.5123 49.2773 81.2457 49 80.819 48.872C80.4137 48.7227 80.0297 48.648 79.667 48.648C78.8777 48.648 78.0243 49.1813 77.107 50.248C76.1897 51.3147 75.4003 52.5627 74.739 53.992C74.099 55.4 73.779 56.5413 73.779 57.416C73.779 57.8427 73.8963 58.152 74.131 58.344C74.3657 58.5147 74.6643 58.6 75.027 58.6C75.5177 58.6 76.2963 58.4187 77.363 58.056C78.451 57.672 79.2083 57.2987 79.635 56.936ZM100.19 60.456C100.062 60.84 99.7207 61.096 99.166 61.224C98.6327 61.3733 98.1633 61.448 97.758 61.448C97.3953 61.448 97.15 61.352 97.022 61.16C96.894 60.9893 96.7873 60.7333 96.702 60.392C96.6167 60.0293 96.5527 59.7733 96.51 59.624C95.614 60.2427 94.686 60.712 93.726 61.032C92.7873 61.3733 91.998 61.544 91.358 61.544C90.718 61.544 90.0567 61.3947 89.374 61.096C88.7127 60.8187 88.1367 60.328 87.646 59.624C87.1553 58.8987 86.91 57.9387 86.91 56.744C86.91 55.528 87.2833 54.0667 88.03 52.36C88.798 50.632 89.886 49.1387 91.294 47.88C92.7233 46.6 94.3873 45.96 96.286 45.96C97.246 45.96 98.1953 46.1947 99.134 46.664C100.073 47.112 100.841 47.688 101.438 48.392C102.035 49.0747 102.345 49.768 102.366 50.472L101.95 51.592C101.353 53.256 100.883 54.6747 100.542 55.848C100.201 57 100.03 58.0347 100.03 58.952C100.03 59.5707 100.083 60.072 100.19 60.456ZM96.542 56.936C96.734 56.4027 96.9687 55.7093 97.246 54.856C97.7153 53.2347 98.1633 51.8693 98.59 50.76C98.5047 50.4613 98.3127 50.152 98.014 49.832C97.7153 49.4907 97.406 49.2133 97.086 49C96.766 48.7653 96.542 48.648 96.414 48.648C95.6247 48.648 94.782 49.128 93.886 50.088C92.99 51.0267 92.2327 52.1467 91.614 53.448C91.0167 54.7493 90.718 55.88 90.718 56.84C90.718 57.2667 90.846 57.672 91.102 58.056C91.358 58.4187 91.6353 58.6 91.934 58.6C92.4247 58.6 93.2033 58.4187 94.27 58.056C95.358 57.672 96.1153 57.2987 96.542 56.936ZM106.621 45.48C107.623 44.9467 108.455 44.68 109.117 44.68C109.842 44.68 110.247 45.0533 110.333 45.8L109.053 50.568C110.461 48.5413 111.773 47.144 112.989 46.376C114.205 45.5867 115.293 45.192 116.253 45.192C117.383 45.192 118.205 45.4053 118.717 45.832C119.25 46.2373 119.527 46.888 119.549 47.784C118.823 49.7467 118.215 51.6133 117.725 53.384C117.255 55.1547 117.021 56.7867 117.021 58.28V59.016C117.021 59.6133 116.85 60.008 116.509 60.2C116.189 60.3707 115.538 60.456 114.557 60.456C114.173 60.456 113.81 60.392 113.469 60.264C113.149 60.136 112.989 59.9227 112.989 59.624C112.989 58.7707 113.181 57.5227 113.565 55.88C113.949 54.2373 114.375 52.616 114.845 51.016C115.335 49.416 115.581 48.6587 115.581 48.744C115.581 48.4453 115.41 48.296 115.069 48.296C114.621 48.296 113.895 48.6907 112.893 49.48C111.89 50.2693 110.866 51.5067 109.821 53.192C108.775 54.856 107.943 56.9467 107.325 59.464C107.303 59.592 107.261 59.8267 107.197 60.168C107.133 60.5093 106.962 60.7547 106.685 60.904C106.407 61.032 105.959 61.096 105.341 61.096C104.637 61.096 104.114 61.0213 103.773 60.872C103.431 60.7227 103.261 60.4027 103.261 59.912L104.221 55.816C104.477 54.7067 104.807 53.2987 105.213 51.592C105.618 49.864 106.087 47.8267 106.621 45.48ZM133.82 51.432C133.308 51.432 132.956 51.3147 132.764 51.08C132.593 50.8453 132.508 50.536 132.508 50.152L132.54 49.416C132.54 49.16 132.401 48.9573 132.124 48.808C131.846 48.6373 131.548 48.552 131.228 48.552C130.566 48.552 129.67 48.9467 128.54 49.736C127.43 50.5253 126.449 51.5707 125.596 52.872C124.764 54.152 124.348 55.528 124.348 57C124.348 57.5973 124.582 58.056 125.052 58.376C125.521 58.696 126.214 58.856 127.132 58.856C127.708 58.856 128.369 58.7387 129.116 58.504C129.862 58.2693 130.332 57.9707 130.524 57.608C131.249 56.2853 131.91 55.624 132.508 55.624C133.382 55.624 133.969 55.7947 134.268 56.136C134.588 56.456 134.758 56.8187 134.78 57.224C134.566 57.8213 134.14 58.4293 133.5 59.048C132.881 59.6667 132.102 60.2107 131.164 60.68C130.225 61.128 129.19 61.4267 128.06 61.576C127.654 62.1947 127.334 62.728 127.1 63.176C127.484 63.112 127.846 63.08 128.188 63.08C128.998 63.08 129.745 63.3147 130.428 63.784C131.11 64.2747 131.452 64.84 131.452 65.48C131.452 66.5893 130.95 67.4533 129.948 68.072C128.945 68.6907 127.59 69 125.884 69C124.988 69 124.134 68.7653 123.324 68.296C122.513 67.8267 122.108 67.272 122.108 66.632C122.108 66.5467 122.236 66.4507 122.492 66.344C122.769 66.2587 123.068 66.216 123.388 66.216C123.708 66.216 123.974 66.248 124.188 66.312C124.401 66.3973 124.646 66.504 124.924 66.632C125.18 66.76 125.382 66.856 125.532 66.92C125.702 66.984 125.905 67.016 126.14 67.016C126.844 67.016 127.388 66.8987 127.772 66.664C128.156 66.4293 128.348 66.0987 128.348 65.672C128.348 65.3733 128.23 65.1493 127.996 65C127.761 64.8507 127.462 64.776 127.1 64.776C126.972 64.776 126.822 64.7973 126.652 64.84C126.502 64.8827 126.396 64.9147 126.332 64.936C126.054 65.0427 125.788 65.096 125.532 65.096C124.934 65.096 124.476 65.0533 124.156 64.968C123.836 64.904 123.676 64.808 123.676 64.68C123.676 64.104 124.198 63.08 125.244 61.608C123.622 61.416 122.428 60.904 121.66 60.072C120.892 59.24 120.508 58.216 120.508 57C120.508 54.9947 121.02 53.1387 122.044 51.432C123.068 49.704 124.444 48.3387 126.172 47.336C127.9 46.3333 129.745 45.832 131.708 45.832C132.924 45.832 133.926 46.1947 134.716 46.92C135.526 47.624 135.932 48.584 135.932 49.8C135.932 50.2693 135.74 50.664 135.356 50.984C134.972 51.2827 134.46 51.432 133.82 51.432ZM149.02 59.336C149.063 59.8907 149.138 60.392 149.244 60.84C149.202 60.968 149.01 61.096 148.668 61.224C148.348 61.352 148.071 61.416 147.836 61.416C147.068 61.416 146.514 61.2987 146.172 61.064C145.852 60.8507 145.692 60.52 145.692 60.072C145.692 59.6453 145.735 59.2187 145.82 58.792C145.351 59.432 144.658 59.9653 143.74 60.392C142.844 60.7973 142.119 61 141.564 61C140.135 61 138.94 60.584 137.98 59.752C137.042 58.92 136.572 57.5867 136.572 55.752C136.572 54.024 136.978 52.4027 137.788 50.888C138.62 49.352 139.762 48.1253 141.212 47.208C142.663 46.2693 144.274 45.8 146.044 45.8C146.386 45.8 146.834 45.896 147.388 46.088C147.943 46.2587 148.498 46.568 149.052 47.016C149.628 47.4427 150.108 47.9973 150.492 48.68C150.663 48.68 150.866 48.7653 151.1 48.936C151.335 49.1067 151.452 49.2773 151.452 49.448C151.452 49.64 151.42 49.832 151.356 50.024L149.02 59.336ZM147.58 50.376C147.452 49.9067 147.196 49.512 146.812 49.192C146.45 48.872 146.119 48.712 145.82 48.712C144.839 48.712 143.911 49.064 143.036 49.768C142.183 50.4507 141.49 51.304 140.956 52.328C140.423 53.352 140.156 54.3227 140.156 55.24C140.156 56.136 140.263 56.872 140.476 57.448C140.69 58.024 141.106 58.312 141.724 58.312C142.258 58.312 142.866 58.152 143.548 57.832C144.252 57.512 144.871 57.0853 145.404 56.552C145.959 55.9973 146.322 55.4213 146.492 54.824L147.58 50.376Z" fill="#FAFAFA"/>
</svg>
