<svg width="260" height="75" viewBox="0 0 260 75" fill="none" xmlns="http://www.w3.org/2000/svg">
<path d="M31.9276 22H24.0483C21.9137 22 19.8667 22.7864 18.3573 24.1863C16.848 25.5861 16 27.4847 16 29.4644V36.1077C16 38.0874 16.848 39.986 18.3573 41.3858L21.4616 44.2641L16 49.3294V57.9993C17.1509 57.9997 18.2906 57.7897 19.3539 57.3814C20.4173 56.9731 21.3834 56.3744 22.1972 55.6196L27.295 50.8917V39.6503L24.4571 36.1928C24.4355 36.1659 24.4081 36.1436 24.3767 36.1271L20.726 34.252C20.6801 34.2309 20.6427 34.1969 20.619 34.1548C20.5954 34.1126 20.5869 34.0647 20.5946 34.0177C20.6023 33.9708 20.6259 33.9274 20.6619 33.8937C20.698 33.86 20.7446 33.8378 20.7952 33.8303L21.3086 33.7094C21.3494 33.7029 21.3878 33.6868 21.4199 33.6626C21.452 33.6384 21.4769 33.607 21.4922 33.5713C21.5075 33.5356 21.5126 33.4969 21.5071 33.4589C21.5016 33.4208 21.4856 33.3848 21.4608 33.3541L20.668 32.3837C20.5159 32.1978 20.7348 31.9575 20.9859 32.0329L22.041 32.3486C22.2825 32.4233 22.5014 32.1993 22.3686 32.0105L21.1614 30.3153C21.0278 30.128 21.2475 29.9025 21.4906 29.9772L22.2149 30.2011C22.2551 30.2155 22.2983 30.2208 22.3412 30.2166C22.384 30.2123 22.4251 30.1987 22.4611 30.1769C22.4972 30.155 22.5271 30.1255 22.5483 30.0907C22.5696 30.056 22.5817 30.0171 22.5835 29.9772L22.532 28.4425C22.5248 28.2327 22.8249 28.1238 23.0004 28.2723L23.8551 28.9941C23.8849 29.0186 23.9198 29.0372 23.9576 29.0488C23.9954 29.0603 24.0353 29.0645 24.075 29.0613C24.1146 29.058 24.1531 29.0472 24.1881 29.0297C24.2231 29.0121 24.2539 28.9881 24.2785 28.9591L24.4853 28.697C24.5144 28.6623 24.5523 28.6348 24.5956 28.6169C24.6389 28.599 24.6863 28.5913 24.7336 28.5945C24.7809 28.5977 24.8266 28.6116 24.8667 28.6351C24.9068 28.6586 24.94 28.6909 24.9634 28.7291L26.4708 31.5037C26.602 31.744 27.0342 31.6418 26.994 31.379L26.3244 26.6563C26.297 26.4622 26.5481 26.3278 26.7437 26.4323L27.043 26.5921C27.0799 26.6127 27.1213 26.6251 27.1641 26.6285C27.207 26.632 27.2501 26.6263 27.2902 26.6119C27.3302 26.5974 27.3662 26.5747 27.3954 26.5454C27.4245 26.5161 27.4461 26.481 27.4584 26.4428C27.5252 26.1689 28.0024 26.2099 28.0024 26.4898C28.0024 26.2099 28.4805 26.1689 28.5465 26.4428C28.5588 26.481 28.5805 26.5161 28.6097 26.5454C28.6389 26.5747 28.675 26.5974 28.7152 26.6119C28.7553 26.6263 28.7985 26.632 28.8413 26.6285C28.8842 26.6251 28.9257 26.6127 28.9626 26.5921L29.262 26.4323C29.4576 26.3286 29.7087 26.463 29.6813 26.6563L29.0117 31.379C28.9747 31.6418 29.4036 31.744 29.534 31.5037L31.0415 28.7291C31.065 28.6909 31.0982 28.6586 31.1384 28.6351C31.1785 28.6117 31.2243 28.5977 31.2717 28.5945C31.319 28.5914 31.3665 28.5991 31.4098 28.617C31.4532 28.6348 31.4912 28.6623 31.5203 28.697L31.7272 28.9591C31.7517 28.988 31.7824 29.012 31.8173 29.0296C31.8522 29.0472 31.8907 29.0579 31.9303 29.0612C31.9698 29.0645 32.0097 29.0603 32.0474 29.0487C32.0852 29.0372 32.12 29.0186 32.1497 28.9941L33.0044 28.2723C33.1807 28.123 33.4809 28.2327 33.4737 28.4425L33.4221 29.9772C33.424 30.0171 33.436 30.056 33.4573 30.0907C33.4786 30.1255 33.5085 30.155 33.5445 30.1769C33.5805 30.1987 33.6216 30.2123 33.6645 30.2166C33.7073 30.2208 33.7506 30.2155 33.7908 30.2011L34.5151 29.9772C34.7566 29.9025 34.9779 30.1265 34.8451 30.3153L33.6378 32.0105C33.5051 32.1971 33.7223 32.4218 33.9654 32.3486L35.0205 32.0329C35.2716 31.9582 35.4897 32.1978 35.3384 32.3837L34.5457 33.3541C34.5208 33.3848 34.5049 33.4208 34.4993 33.4589C34.4938 33.4969 34.499 33.5356 34.5142 33.5713C34.5295 33.607 34.5544 33.6384 34.5865 33.6626C34.6187 33.6868 34.657 33.7029 34.6978 33.7094L35.2113 33.8303C35.2618 33.8378 35.3085 33.86 35.3445 33.8937C35.3806 33.9274 35.4042 33.9708 35.4119 34.0177C35.4196 34.0647 35.411 34.1126 35.3874 34.1548C35.3638 34.1969 35.3263 34.2309 35.2805 34.252L31.6282 36.1286C31.5966 36.1449 31.5691 36.1673 31.5477 36.1943L28.7091 39.6518V50.9827L33.6419 55.5569C34.4767 56.3315 35.4679 56.946 36.5588 57.3652C37.6498 57.7844 38.8191 58.0001 40 58V49.4197L34.4354 44.2648L37.6306 41.3014C38.3796 40.6068 38.9733 39.7818 39.3779 38.8739C39.7824 37.966 39.9897 36.993 39.9879 36.0106L39.9759 29.4524C39.9725 27.4748 39.123 25.5793 37.614 24.182C36.105 22.7848 34.0599 22 31.9276 22Z" fill="#FAFAFA"/>
<path d="M51.616 32.862C51.616 31.586 51.8727 30.4713 52.386 29.518C52.914 28.5647 53.64 27.8313 54.564 27.318C55.5027 26.8047 56.5733 26.548 57.776 26.548C59.316 26.548 60.5993 26.9513 61.626 27.758C62.6673 28.5647 63.3493 29.7013 63.672 31.168H59.668C59.3307 30.2293 58.678 29.76 57.71 29.76C57.0207 29.76 56.4707 30.0313 56.06 30.574C55.6493 31.102 55.444 31.8647 55.444 32.862C55.444 33.8593 55.6493 34.6293 56.06 35.172C56.4707 35.7 57.0207 35.964 57.71 35.964C58.678 35.964 59.3307 35.4947 59.668 34.556H63.672C63.3493 35.9933 62.6673 37.1227 61.626 37.944C60.5847 38.7653 59.3013 39.176 57.776 39.176C56.5733 39.176 55.5027 38.9193 54.564 38.406C53.64 37.8927 52.914 37.1593 52.386 36.206C51.8727 35.2527 51.616 34.138 51.616 32.862ZM71.2723 39.176C70.0696 39.176 68.9843 38.9193 68.0163 38.406C67.063 37.8927 66.3076 37.1593 65.7503 36.206C65.2076 35.2527 64.9363 34.138 64.9363 32.862C64.9363 31.6007 65.215 30.4933 65.7723 29.54C66.3296 28.572 67.0923 27.8313 68.0603 27.318C69.0283 26.8047 70.1136 26.548 71.3163 26.548C72.519 26.548 73.6043 26.8047 74.5723 27.318C75.5403 27.8313 76.303 28.572 76.8603 29.54C77.4176 30.4933 77.6963 31.6007 77.6963 32.862C77.6963 34.1233 77.4103 35.238 76.8383 36.206C76.281 37.1593 75.511 37.8927 74.5283 38.406C73.5603 38.9193 72.475 39.176 71.2723 39.176ZM71.2723 35.92C71.991 35.92 72.5996 35.656 73.0983 35.128C73.6116 34.6 73.8683 33.8447 73.8683 32.862C73.8683 31.8793 73.619 31.124 73.1203 30.596C72.6363 30.068 72.035 29.804 71.3163 29.804C70.583 29.804 69.9743 30.068 69.4903 30.596C69.0063 31.1093 68.7643 31.8647 68.7643 32.862C68.7643 33.8447 68.999 34.6 69.4683 35.128C69.9523 35.656 70.5536 35.92 71.2723 35.92ZM83.2121 35.898H88.5361V39H79.0101V36.008L84.1141 29.826H79.0541V26.724H88.4261V29.716L83.2121 35.898ZM92.4982 25.448C91.8382 25.448 91.2955 25.2573 90.8702 24.876C90.4595 24.48 90.2542 23.996 90.2542 23.424C90.2542 22.8373 90.4595 22.3533 90.8702 21.972C91.2955 21.576 91.8382 21.378 92.4982 21.378C93.1435 21.378 93.6715 21.576 94.0822 21.972C94.5075 22.3533 94.7202 22.8373 94.7202 23.424C94.7202 23.996 94.5075 24.48 94.0822 24.876C93.6715 25.2573 93.1435 25.448 92.4982 25.448ZM94.3682 26.724V39H90.6062V26.724H94.3682ZM104.574 26.592C106.012 26.592 107.156 27.0613 108.006 28C108.872 28.924 109.304 30.2 109.304 31.828V39H105.564V32.334C105.564 31.5127 105.352 30.8747 104.926 30.42C104.501 29.9653 103.929 29.738 103.21 29.738C102.492 29.738 101.92 29.9653 101.494 30.42C101.069 30.8747 100.856 31.5127 100.856 32.334V39H97.0945V26.724H100.856V28.352C101.238 27.8093 101.751 27.384 102.396 27.076C103.042 26.7533 103.768 26.592 104.574 26.592ZM119.465 26.592C120.873 26.592 122.002 27.0613 122.853 28C123.703 28.924 124.129 30.2 124.129 31.828V39H120.389V32.334C120.389 31.5127 120.176 30.8747 119.751 30.42C119.325 29.9653 118.753 29.738 118.035 29.738C117.316 29.738 116.744 29.9653 116.319 30.42C115.893 30.8747 115.681 31.5127 115.681 32.334V39H111.919V22.72H115.681V28.374C116.062 27.8313 116.583 27.3987 117.243 27.076C117.903 26.7533 118.643 26.592 119.465 26.592ZM125.995 32.84C125.995 31.5787 126.23 30.4713 126.699 29.518C127.183 28.5647 127.836 27.8313 128.657 27.318C129.478 26.8047 130.395 26.548 131.407 26.548C132.272 26.548 133.028 26.724 133.673 27.076C134.333 27.428 134.839 27.89 135.191 28.462V26.724H138.953V39H135.191V37.262C134.824 37.834 134.311 38.296 133.651 38.648C133.006 39 132.25 39.176 131.385 39.176C130.388 39.176 129.478 38.9193 128.657 38.406C127.836 37.878 127.183 37.1373 126.699 36.184C126.23 35.216 125.995 34.1013 125.995 32.84ZM135.191 32.862C135.191 31.9233 134.927 31.1827 134.399 30.64C133.886 30.0973 133.255 29.826 132.507 29.826C131.759 29.826 131.121 30.0973 130.593 30.64C130.08 31.168 129.823 31.9013 129.823 32.84C129.823 33.7787 130.08 34.5267 130.593 35.084C131.121 35.6267 131.759 35.898 132.507 35.898C133.255 35.898 133.886 35.6267 134.399 35.084C134.927 34.5413 135.191 33.8007 135.191 32.862ZM151.331 39.176C150.26 39.176 149.307 38.9927 148.471 38.626C147.635 38.2593 146.975 37.7607 146.491 37.13C146.007 36.4847 145.735 35.766 145.677 34.974H149.395C149.439 35.3993 149.637 35.744 149.989 36.008C150.341 36.272 150.773 36.404 151.287 36.404C151.756 36.404 152.115 36.316 152.365 36.14C152.629 35.9493 152.761 35.7073 152.761 35.414C152.761 35.062 152.577 34.8053 152.211 34.644C151.844 34.468 151.25 34.2773 150.429 34.072C149.549 33.8667 148.815 33.654 148.229 33.434C147.642 33.1993 147.136 32.84 146.711 32.356C146.285 31.8573 146.073 31.19 146.073 30.354C146.073 29.65 146.263 29.012 146.645 28.44C147.041 27.8533 147.613 27.3913 148.361 27.054C149.123 26.7167 150.025 26.548 151.067 26.548C152.607 26.548 153.817 26.9293 154.697 27.692C155.591 28.4547 156.105 29.4667 156.237 30.728H152.761C152.702 30.3027 152.511 29.9653 152.189 29.716C151.881 29.4667 151.47 29.342 150.957 29.342C150.517 29.342 150.179 29.43 149.945 29.606C149.71 29.7673 149.593 29.9947 149.593 30.288C149.593 30.64 149.776 30.904 150.143 31.08C150.524 31.256 151.111 31.432 151.903 31.608C152.812 31.8427 153.553 32.0773 154.125 32.312C154.697 32.532 155.195 32.8987 155.621 33.412C156.061 33.9107 156.288 34.5853 156.303 35.436C156.303 36.1547 156.097 36.8 155.687 37.372C155.291 37.9293 154.711 38.3693 153.949 38.692C153.201 39.0147 152.328 39.176 151.331 39.176ZM164.192 39.176C162.99 39.176 161.904 38.9193 160.936 38.406C159.983 37.8927 159.228 37.1593 158.67 36.206C158.128 35.2527 157.856 34.138 157.856 32.862C157.856 31.6007 158.135 30.4933 158.692 29.54C159.25 28.572 160.012 27.8313 160.98 27.318C161.948 26.8047 163.034 26.548 164.236 26.548C165.439 26.548 166.524 26.8047 167.492 27.318C168.46 27.8313 169.223 28.572 169.78 29.54C170.338 30.4933 170.616 31.6007 170.616 32.862C170.616 34.1233 170.33 35.238 169.758 36.206C169.201 37.1593 168.431 37.8927 167.448 38.406C166.48 38.9193 165.395 39.176 164.192 39.176ZM164.192 35.92C164.911 35.92 165.52 35.656 166.018 35.128C166.532 34.6 166.788 33.8447 166.788 32.862C166.788 31.8793 166.539 31.124 166.04 30.596C165.556 30.068 164.955 29.804 164.236 29.804C163.503 29.804 162.894 30.068 162.41 30.596C161.926 31.1093 161.684 31.8647 161.684 32.862C161.684 33.8447 161.919 34.6 162.388 35.128C162.872 35.656 163.474 35.92 164.192 35.92ZM176.374 22.72V39H172.612V22.72H176.374ZM180.992 25.448C180.332 25.448 179.79 25.2573 179.364 24.876C178.954 24.48 178.748 23.996 178.748 23.424C178.748 22.8373 178.954 22.3533 179.364 21.972C179.79 21.576 180.332 21.378 180.992 21.378C181.638 21.378 182.166 21.576 182.576 21.972C183.002 22.3533 183.214 22.8373 183.214 23.424C183.214 23.996 183.002 24.48 182.576 24.876C182.166 25.2573 181.638 25.448 180.992 25.448ZM182.862 26.724V39H179.1V26.724H182.862ZM184.841 32.84C184.841 31.5787 185.075 30.4713 185.545 29.518C186.029 28.5647 186.681 27.8313 187.503 27.318C188.324 26.8047 189.241 26.548 190.253 26.548C191.059 26.548 191.793 26.7167 192.453 27.054C193.127 27.3913 193.655 27.846 194.037 28.418V22.72H197.799V39H194.037V37.24C193.685 37.8267 193.179 38.296 192.519 38.648C191.873 39 191.118 39.176 190.253 39.176C189.241 39.176 188.324 38.9193 187.503 38.406C186.681 37.878 186.029 37.1373 185.545 36.184C185.075 35.216 184.841 34.1013 184.841 32.84ZM194.037 32.862C194.037 31.9233 193.773 31.1827 193.245 30.64C192.731 30.0973 192.101 29.826 191.353 29.826C190.605 29.826 189.967 30.0973 189.439 30.64C188.925 31.168 188.669 31.9013 188.669 32.84C188.669 33.7787 188.925 34.5267 189.439 35.084C189.967 35.6267 190.605 35.898 191.353 35.898C192.101 35.898 192.731 35.6267 193.245 35.084C193.773 34.5413 194.037 33.8007 194.037 32.862ZM199.772 32.84C199.772 31.5787 200.007 30.4713 200.476 29.518C200.96 28.5647 201.613 27.8313 202.434 27.318C203.256 26.8047 204.172 26.548 205.184 26.548C206.05 26.548 206.805 26.724 207.45 27.076C208.11 27.428 208.616 27.89 208.968 28.462V26.724H212.73V39H208.968V37.262C208.602 37.834 208.088 38.296 207.428 38.648C206.783 39 206.028 39.176 205.162 39.176C204.165 39.176 203.256 38.9193 202.434 38.406C201.613 37.878 200.96 37.1373 200.476 36.184C200.007 35.216 199.772 34.1013 199.772 32.84ZM208.968 32.862C208.968 31.9233 208.704 31.1827 208.176 30.64C207.663 30.0973 207.032 29.826 206.284 29.826C205.536 29.826 204.898 30.0973 204.37 30.64C203.857 31.168 203.6 31.9013 203.6 32.84C203.6 33.7787 203.857 34.5267 204.37 35.084C204.898 35.6267 205.536 35.898 206.284 35.898C207.032 35.898 207.663 35.6267 208.176 35.084C208.704 34.5413 208.968 33.8007 208.968 32.862ZM209.254 23.666L203.952 25.888V23.292L209.254 20.74V23.666ZM219.214 28.77C219.654 28.0953 220.204 27.5673 220.864 27.186C221.524 26.79 222.257 26.592 223.064 26.592V30.574H222.03C221.091 30.574 220.387 30.7793 219.918 31.19C219.449 31.586 219.214 32.29 219.214 33.302V39H215.452V26.724H219.214V28.77ZM226.754 25.448C226.094 25.448 225.551 25.2573 225.126 24.876C224.715 24.48 224.51 23.996 224.51 23.424C224.51 22.8373 224.715 22.3533 225.126 21.972C225.551 21.576 226.094 21.378 226.754 21.378C227.399 21.378 227.927 21.576 228.338 21.972C228.763 22.3533 228.976 22.8373 228.976 23.424C228.976 23.996 228.763 24.48 228.338 24.876C227.927 25.2573 227.399 25.448 226.754 25.448ZM228.624 26.724V39H224.862V26.724H228.624ZM230.602 32.84C230.602 31.5787 230.837 30.4713 231.306 29.518C231.79 28.5647 232.443 27.8313 233.264 27.318C234.086 26.8047 235.002 26.548 236.014 26.548C236.88 26.548 237.635 26.724 238.28 27.076C238.94 27.428 239.446 27.89 239.798 28.462V26.724H243.56V39H239.798V37.262C239.432 37.834 238.918 38.296 238.258 38.648C237.613 39 236.858 39.176 235.992 39.176C234.995 39.176 234.086 38.9193 233.264 38.406C232.443 37.878 231.79 37.1373 231.306 36.184C230.837 35.216 230.602 34.1013 230.602 32.84ZM239.798 32.862C239.798 31.9233 239.534 31.1827 239.006 30.64C238.493 30.0973 237.862 29.826 237.114 29.826C236.366 29.826 235.728 30.0973 235.2 30.64C234.687 31.168 234.43 31.9013 234.43 32.84C234.43 33.7787 234.687 34.5267 235.2 35.084C235.728 35.6267 236.366 35.898 237.114 35.898C237.862 35.898 238.493 35.6267 239.006 35.084C239.534 34.5413 239.798 33.8007 239.798 32.862ZM58.305 48.095C58.255 47.935 58.06 47.795 57.72 47.675C57.39 47.545 56.955 47.48 56.415 47.48C55.825 47.48 55.365 47.645 55.035 47.975C54.705 48.305 54.54 48.72 54.54 49.22C54.54 49.53 54.65 49.77 54.87 49.94C55.1 50.1 55.45 50.28 55.92 50.48L56.46 50.705L56.91 50.915C57.45 51.155 57.875 51.375 58.185 51.575C58.505 51.765 58.775 52.03 58.995 52.37C59.215 52.71 59.325 53.145 59.325 53.675C59.325 54.245 59.135 54.74 58.755 55.16C58.385 55.57 57.865 55.88 57.195 56.09C56.525 56.31 55.745 56.42 54.855 56.42C54.195 56.42 53.575 56.315 52.995 56.105C52.425 55.905 51.97 55.65 51.63 55.34C51.3 55.03 51.135 54.725 51.135 54.425C51.135 54.135 51.26 53.9 51.51 53.72C51.76 53.53 52.115 53.4 52.575 53.33C52.625 53.62 52.795 53.88 53.085 54.11C53.375 54.34 53.71 54.525 54.09 54.665C54.48 54.795 54.82 54.86 55.11 54.86C55.64 54.86 56.11 54.755 56.52 54.545C56.94 54.335 57.15 54.045 57.15 53.675C57.15 53.365 57 53.11 56.7 52.91C56.41 52.7 55.97 52.475 55.38 52.235L54.585 51.875C53.935 51.555 53.42 51.195 53.04 50.795C52.66 50.395 52.47 49.865 52.47 49.205C52.47 48.475 52.675 47.885 53.085 47.435C53.495 46.975 53.99 46.645 54.57 46.445C55.16 46.245 55.735 46.145 56.295 46.145C57.185 46.145 57.915 46.26 58.485 46.49C59.065 46.72 59.485 47.01 59.745 47.36C60.005 47.71 60.135 48.07 60.135 48.44C60.135 48.65 60.08 48.905 59.97 49.205C59.87 49.505 59.715 49.765 59.505 49.985C59.305 50.205 59.06 50.315 58.77 50.315C58.27 50.315 58.02 50.055 58.02 49.535C58.04 49.375 58.085 49.115 58.155 48.755C58.225 48.385 58.275 48.165 58.305 48.095ZM63.7789 47.225C63.9189 47.015 64.1839 46.72 64.5739 46.34C64.9739 45.96 65.3639 45.625 65.7439 45.335C66.1339 45.035 66.3839 44.885 66.4939 44.885C66.7039 44.885 66.9439 44.98 67.2139 45.17C67.4839 45.36 67.6189 45.535 67.6189 45.695C67.6189 45.825 67.5489 45.955 67.4089 46.085C67.2689 46.215 66.9839 46.43 66.5539 46.73C65.9439 47.16 65.4789 47.46 65.1589 47.63C64.8389 47.79 64.5489 47.87 64.2889 47.87C64.0989 47.87 63.9589 47.835 63.8689 47.765C63.7789 47.695 63.7339 47.575 63.7339 47.405C63.7339 47.325 63.7489 47.265 63.7789 47.225ZM63.4489 56.315C62.4689 56.315 61.7539 56.12 61.3039 55.73C60.8539 55.34 60.6289 54.82 60.6289 54.17C60.6289 53.22 60.8639 52.34 61.3339 51.53C61.8139 50.72 62.4489 50.08 63.2389 49.61C64.0389 49.13 64.8989 48.89 65.8189 48.89C66.3789 48.89 66.8489 49.05 67.2289 49.37C67.6089 49.68 67.7989 50.14 67.7989 50.75C67.7989 51.1 67.6839 51.39 67.4539 51.62C67.2339 51.84 66.9139 52.04 66.4939 52.22C66.0739 52.39 65.3939 52.635 64.4539 52.955C63.6039 53.235 62.9139 53.47 62.3839 53.66C62.3439 53.81 62.3239 53.965 62.3239 54.125C62.3239 54.405 62.4389 54.62 62.6689 54.77C62.9089 54.92 63.2439 54.995 63.6739 54.995C63.9439 54.995 64.2539 54.94 64.6039 54.83C64.9539 54.72 65.1739 54.58 65.2639 54.41C65.6039 53.79 65.9139 53.48 66.1939 53.48C66.6039 53.48 66.8789 53.56 67.0189 53.72C67.1689 53.87 67.2489 54.04 67.2589 54.23C67.1389 54.55 66.9039 54.875 66.5539 55.205C66.2039 55.525 65.7589 55.79 65.2189 56C64.6789 56.21 64.0889 56.315 63.4489 56.315ZM62.8039 52.28C63.7939 51.96 64.6089 51.665 65.2489 51.395C65.8889 51.115 66.2089 50.84 66.2089 50.57C66.2089 50.45 66.1439 50.355 66.0139 50.285C65.8839 50.205 65.7439 50.165 65.5939 50.165C65.2939 50.165 64.9489 50.28 64.5589 50.51C64.1789 50.74 63.8239 51.02 63.4939 51.35C63.1639 51.68 62.9339 51.99 62.8039 52.28ZM70.164 55.43C70.154 55.49 70.129 55.61 70.089 55.79C70.059 55.96 69.974 56.08 69.834 56.15C69.704 56.22 69.494 56.255 69.204 56.255C68.874 56.255 68.634 56.22 68.484 56.15C68.334 56.08 68.259 55.93 68.259 55.7L68.979 52.835C69.379 51.185 69.644 50.135 69.774 49.685L69.399 49.235C69.369 49.205 69.354 49.17 69.354 49.13C69.354 49.03 69.464 48.95 69.684 48.89C69.904 48.82 70.209 48.785 70.599 48.785C70.949 48.785 71.184 48.885 71.304 49.085C71.424 49.275 71.499 49.525 71.529 49.835L71.424 50.225C71.744 49.835 72.114 49.515 72.534 49.265C72.964 49.005 73.344 48.875 73.674 48.875C74.104 48.875 74.439 48.95 74.679 49.1C74.919 49.25 75.039 49.445 75.039 49.685C75.039 49.895 74.964 50.115 74.814 50.345C74.674 50.565 74.494 50.755 74.274 50.915C74.054 51.065 73.839 51.15 73.629 51.17C73.429 51.17 73.294 51.145 73.224 51.095C73.154 51.045 73.119 50.97 73.119 50.87L73.209 50.375C72.409 50.595 71.684 51.125 71.034 51.965L70.164 55.43ZM78.5364 55.505C77.7864 56.005 77.0714 56.255 76.3914 56.255C76.1314 56.255 75.8364 56.17 75.5064 56C75.1864 55.83 74.9114 55.6 74.6814 55.31C74.4514 55.02 74.3364 54.7 74.3364 54.35C74.3364 53.79 74.5214 53.075 74.8914 52.205C75.2614 51.335 75.7814 50.575 76.4514 49.925C77.1314 49.275 77.9214 48.95 78.8214 48.95C79.5814 48.95 80.2164 49.075 80.7264 49.325C81.2364 49.575 81.4914 49.935 81.4914 50.405C81.4914 50.435 81.4714 50.54 81.4314 50.72C80.9214 52.93 80.4664 54.77 80.0664 56.24C79.8364 57.1 79.5164 57.76 79.1064 58.22C78.7064 58.69 78.2514 59.005 77.7414 59.165C77.2414 59.325 76.6514 59.405 75.9714 59.405C75.4814 59.405 75.0364 59.275 74.6364 59.015C74.2464 58.755 74.0514 58.385 74.0514 57.905C74.0514 57.565 74.2664 57.395 74.6964 57.395C74.7964 57.395 74.9114 57.47 75.0414 57.62C75.2014 57.79 75.3664 57.92 75.5364 58.01C75.7164 58.11 75.9764 58.16 76.3164 58.16C76.8664 58.16 77.3414 57.93 77.7414 57.47C78.1414 57.01 78.4064 56.355 78.5364 55.505ZM78.8514 54.095C78.9314 53.655 79.0664 53.135 79.2564 52.535C79.4564 51.925 79.7214 51.315 80.0514 50.705C80.0014 50.505 79.8414 50.375 79.5714 50.315C79.3114 50.245 79.0764 50.21 78.8664 50.21C78.4964 50.21 78.0964 50.46 77.6664 50.96C77.2364 51.46 76.8664 52.045 76.5564 52.715C76.2564 53.375 76.1064 53.91 76.1064 54.32C76.1064 54.52 76.1614 54.665 76.2714 54.755C76.3814 54.835 76.5214 54.875 76.6914 54.875C76.9214 54.875 77.2864 54.79 77.7864 54.62C78.2964 54.44 78.6514 54.265 78.8514 54.095ZM83.8746 47.09C83.8746 46.78 83.9696 46.505 84.1596 46.265C84.3596 46.025 84.6346 45.905 84.9846 45.905C85.3546 45.905 85.6746 46.02 85.9446 46.25C86.2246 46.48 86.3646 46.74 86.3646 47.03C86.3646 47.32 86.2246 47.57 85.9446 47.78C85.6646 47.99 85.3396 48.095 84.9696 48.095C84.6096 48.095 84.3346 48.005 84.1446 47.825C83.9646 47.635 83.8746 47.39 83.8746 47.09ZM85.4496 49.745C84.9196 51.905 84.5146 53.53 84.2346 54.62C84.1946 54.78 84.1746 54.955 84.1746 55.145L84.1896 55.565C84.1896 55.735 84.1346 55.855 84.0246 55.925C83.9246 55.995 83.7046 56.035 83.3646 56.045C83.0346 56.045 82.7846 56.01 82.6146 55.94C82.4446 55.87 82.3596 55.72 82.3596 55.49C82.3596 55.38 82.4846 54.795 82.7346 53.735C82.9946 52.675 83.3446 51.295 83.7846 49.595L83.4396 49.145C83.4096 49.115 83.3946 49.08 83.3946 49.04C83.3946 48.94 83.5046 48.86 83.7246 48.8C83.9446 48.73 84.2496 48.695 84.6396 48.695C84.9796 48.695 85.1946 48.795 85.2846 48.995C85.3846 49.185 85.4396 49.435 85.4496 49.745ZM89.1751 56.15C88.2951 56.15 87.6101 55.85 87.1201 55.25C86.6301 54.65 86.3851 53.885 86.3851 52.955C86.3851 52.175 86.5501 51.46 86.8801 50.81C87.2201 50.16 87.6901 49.65 88.2901 49.28C88.9001 48.9 89.5951 48.71 90.3751 48.71C91.2451 48.71 91.8301 48.785 92.1301 48.935C92.2201 48.975 92.3001 49.04 92.3701 49.13C92.4401 49.21 92.4751 49.29 92.4751 49.37C92.4751 49.47 92.4501 49.575 92.4001 49.685C92.3601 49.795 92.2951 49.88 92.2051 49.94C92.4351 49.96 92.6301 50.075 92.7901 50.285C92.9501 50.485 93.0701 50.72 93.1501 50.99C93.2301 51.26 93.2701 51.495 93.2701 51.695C93.2701 52.405 93.0951 53.105 92.7451 53.795C92.4051 54.485 91.9251 55.05 91.3051 55.49C90.6851 55.93 89.9751 56.15 89.1751 56.15ZM89.4001 54.905C89.7201 54.905 90.0451 54.75 90.3751 54.44C90.7151 54.12 90.9951 53.7 91.2151 53.18C91.4351 52.66 91.5451 52.115 91.5451 51.545C91.5451 51.435 91.5051 51.335 91.4251 51.245C91.3551 51.155 91.2551 51.06 91.1251 50.96C91.0551 50.91 90.9901 50.86 90.9301 50.81C90.8801 50.75 90.8551 50.695 90.8551 50.645C90.8551 50.605 90.8651 50.55 90.8851 50.48C90.9151 50.41 90.9301 50.36 90.9301 50.33C90.9301 50.18 90.7451 50.105 90.3751 50.105C89.9651 50.105 89.5851 50.27 89.2351 50.6C88.8951 50.93 88.6251 51.35 88.4251 51.86C88.2351 52.37 88.1401 52.87 88.1401 53.36C88.1401 53.65 88.2051 53.915 88.3351 54.155C88.4651 54.385 88.6251 54.57 88.8151 54.71C89.0151 54.84 89.2101 54.905 89.4001 54.905ZM98.2588 47.75C98.2588 47.61 98.2988 47.5 98.3788 47.42C98.4688 47.33 98.5888 47.25 98.7388 47.18C98.7888 47.15 98.9688 47.06 99.2788 46.91C99.5988 46.76 99.9038 46.645 100.194 46.565C100.284 46.365 100.419 46.2 100.599 46.07C100.789 45.94 101.029 45.875 101.319 45.875C101.489 45.875 101.629 45.91 101.739 45.98C101.849 46.04 101.924 46.12 101.964 46.22C102.334 46.1 102.779 46.04 103.299 46.04C103.949 46.04 104.509 46.18 104.979 46.46C105.459 46.73 105.819 47.105 106.059 47.585C106.309 48.065 106.434 48.605 106.434 49.205C106.434 49.325 106.419 49.49 106.389 49.7C105.979 52.04 104.229 53.21 101.139 53.21C100.859 53.21 100.654 53.205 100.524 53.195L100.329 53.915C100.119 54.685 100.014 55.08 100.014 55.1C99.9338 55.45 99.8088 55.72 99.6388 55.91C99.4788 56.1 99.2138 56.195 98.8438 56.195C98.5338 56.195 98.3038 56.14 98.1538 56.03C98.0138 55.93 97.9438 55.755 97.9438 55.505C97.9438 55.395 97.9588 55.29 97.9888 55.19L99.8038 48.185C99.2838 48.335 98.8888 48.54 98.6188 48.8C98.5088 48.68 98.4188 48.525 98.3488 48.335C98.2888 48.135 98.2588 47.94 98.2588 47.75ZM100.839 51.8C100.959 51.81 101.129 51.815 101.349 51.815C102.299 51.815 103.049 51.635 103.599 51.275C104.159 50.915 104.519 50.36 104.679 49.61C104.709 49.44 104.724 49.315 104.724 49.235C104.724 48.675 104.569 48.26 104.259 47.99C103.949 47.71 103.514 47.57 102.954 47.57C102.654 47.57 102.269 47.64 101.799 47.78C101.409 49.33 101.089 50.67 100.839 51.8ZM109.695 56.315C108.705 56.315 107.98 56.12 107.52 55.73C107.07 55.34 106.845 54.82 106.845 54.17C106.845 53.2 107.045 52.32 107.445 51.53C107.845 50.73 108.4 50.105 109.11 49.655C109.82 49.195 110.63 48.965 111.54 48.965C112.11 48.965 112.585 49.125 112.965 49.445C113.355 49.765 113.55 50.24 113.55 50.87C113.55 51.54 113.33 52.065 112.89 52.445C112.46 52.825 111.895 53.1 111.195 53.27C110.505 53.43 109.635 53.56 108.585 53.66C108.555 53.79 108.54 53.945 108.54 54.125C108.54 54.405 108.66 54.62 108.9 54.77C109.14 54.92 109.475 54.995 109.905 54.995C110.215 54.995 110.575 54.93 110.985 54.8C111.405 54.67 111.725 54.455 111.945 54.155C112.075 53.985 112.225 53.85 112.395 53.75C112.575 53.65 112.75 53.6 112.92 53.6C113.08 53.6 113.21 53.655 113.31 53.765C113.42 53.865 113.475 54.02 113.475 54.23C113.365 54.55 113.135 54.875 112.785 55.205C112.435 55.525 111.99 55.79 111.45 56C110.92 56.21 110.335 56.315 109.695 56.315ZM108.975 52.28C109.615 52.27 110.27 52.15 110.94 51.92C111.61 51.68 111.945 51.265 111.945 50.675C111.945 50.535 111.88 50.43 111.75 50.36C111.62 50.28 111.48 50.24 111.33 50.24C111.04 50.24 110.735 50.35 110.415 50.57C110.105 50.78 109.82 51.045 109.56 51.365C109.3 51.675 109.105 51.98 108.975 52.28ZM116.061 55.43C116.051 55.5 116.031 55.62 116.001 55.79C115.981 55.96 115.906 56.08 115.776 56.15C115.656 56.22 115.451 56.255 115.161 56.255C114.831 56.255 114.586 56.22 114.426 56.15C114.266 56.08 114.181 55.93 114.171 55.7C114.251 55.3 114.381 54.59 114.561 53.57C114.621 53.23 114.716 52.72 114.846 52.04C114.976 51.35 115.076 50.85 115.146 50.54C115.246 49.83 115.386 49.365 115.566 49.145C115.746 48.915 115.966 48.8 116.226 48.8C116.576 48.8 116.806 48.85 116.916 48.95C117.036 49.05 117.101 49.18 117.111 49.34L116.991 50.225C117.291 49.835 117.646 49.515 118.056 49.265C118.466 49.005 118.836 48.875 119.166 48.875C119.606 48.875 119.951 48.955 120.201 49.115C120.451 49.265 120.576 49.46 120.576 49.7C120.576 49.88 120.466 50.02 120.246 50.12C120.036 50.22 119.756 50.285 119.406 50.315C118.856 50.365 118.311 50.6 117.771 51.02C117.231 51.44 116.841 51.935 116.601 52.505L116.061 55.43ZM123.039 56.315C122.059 56.315 121.344 56.12 120.894 55.73C120.444 55.34 120.219 54.82 120.219 54.17C120.219 53.22 120.454 52.34 120.924 51.53C121.404 50.72 122.039 50.08 122.829 49.61C123.629 49.13 124.489 48.89 125.409 48.89C125.969 48.89 126.439 49.05 126.819 49.37C127.199 49.68 127.389 50.14 127.389 50.75C127.389 51.1 127.274 51.39 127.044 51.62C126.824 51.84 126.504 52.04 126.084 52.22C125.664 52.39 124.984 52.635 124.044 52.955C123.194 53.235 122.504 53.47 121.974 53.66C121.934 53.81 121.914 53.965 121.914 54.125C121.914 54.405 122.029 54.62 122.259 54.77C122.499 54.92 122.834 54.995 123.264 54.995C123.534 54.995 123.844 54.94 124.194 54.83C124.544 54.72 124.764 54.58 124.854 54.41C125.194 53.79 125.504 53.48 125.784 53.48C126.194 53.48 126.469 53.56 126.609 53.72C126.759 53.87 126.839 54.04 126.849 54.23C126.729 54.55 126.494 54.875 126.144 55.205C125.794 55.525 125.349 55.79 124.809 56C124.269 56.21 123.679 56.315 123.039 56.315ZM122.394 52.28C123.384 51.96 124.199 51.665 124.839 51.395C125.479 51.115 125.799 50.84 125.799 50.57C125.799 50.45 125.734 50.355 125.604 50.285C125.474 50.205 125.334 50.165 125.184 50.165C124.884 50.165 124.539 50.28 124.149 50.51C123.769 50.74 123.414 51.02 123.084 51.35C122.754 51.68 122.524 51.99 122.394 52.28ZM129.739 47.09C129.739 46.78 129.834 46.505 130.024 46.265C130.224 46.025 130.499 45.905 130.849 45.905C131.219 45.905 131.539 46.02 131.809 46.25C132.089 46.48 132.229 46.74 132.229 47.03C132.229 47.32 132.089 47.57 131.809 47.78C131.529 47.99 131.204 48.095 130.834 48.095C130.474 48.095 130.199 48.005 130.009 47.825C129.829 47.635 129.739 47.39 129.739 47.09ZM128.314 54.995C128.314 54.815 128.759 53.015 129.649 49.595L129.559 49.04C129.559 48.93 129.624 48.845 129.754 48.785C129.884 48.725 130.134 48.695 130.504 48.695C130.794 48.695 131.004 48.775 131.134 48.935C131.274 49.095 131.344 49.285 131.344 49.505C131.344 49.565 131.334 49.645 131.314 49.745L129.979 55.145L130.069 55.7C130.069 55.81 130.004 55.895 129.874 55.955C129.744 56.015 129.494 56.045 129.124 56.045C128.794 56.045 128.579 55.95 128.479 55.76C128.379 55.56 128.324 55.305 128.314 54.995ZM133.899 55.43C133.889 55.49 133.864 55.61 133.824 55.79C133.794 55.96 133.709 56.08 133.569 56.15C133.439 56.22 133.229 56.255 132.939 56.255C132.609 56.255 132.369 56.22 132.219 56.15C132.069 56.08 131.994 55.93 131.994 55.7L132.714 52.835C133.114 51.185 133.379 50.135 133.509 49.685L133.134 49.235C133.104 49.205 133.089 49.17 133.089 49.13C133.089 49.03 133.199 48.95 133.419 48.89C133.639 48.82 133.944 48.785 134.334 48.785C134.684 48.785 134.919 48.885 135.039 49.085C135.159 49.275 135.234 49.525 135.264 49.835L135.159 50.225C135.479 49.835 135.849 49.515 136.269 49.265C136.699 49.005 137.079 48.875 137.409 48.875C137.839 48.875 138.174 48.95 138.414 49.1C138.654 49.25 138.774 49.445 138.774 49.685C138.774 49.895 138.699 50.115 138.549 50.345C138.409 50.565 138.229 50.755 138.009 50.915C137.789 51.065 137.574 51.15 137.364 51.17C137.164 51.17 137.029 51.145 136.959 51.095C136.889 51.045 136.854 50.97 136.854 50.87L136.944 50.375C136.144 50.595 135.419 51.125 134.769 51.965L133.899 55.43ZM144.312 55.745C144.252 55.925 144.092 56.045 143.832 56.105C143.582 56.175 143.362 56.21 143.172 56.21C143.002 56.21 142.887 56.165 142.827 56.075C142.767 55.995 142.717 55.875 142.677 55.715C142.637 55.545 142.607 55.425 142.587 55.355C142.167 55.645 141.732 55.865 141.282 56.015C140.842 56.175 140.472 56.255 140.172 56.255C139.872 56.255 139.562 56.185 139.242 56.045C138.932 55.915 138.662 55.685 138.432 55.355C138.202 55.015 138.087 54.565 138.087 54.005C138.087 53.435 138.262 52.75 138.612 51.95C138.972 51.14 139.482 50.44 140.142 49.85C140.812 49.25 141.592 48.95 142.482 48.95C142.932 48.95 143.377 49.06 143.817 49.28C144.257 49.49 144.617 49.76 144.897 50.09C145.177 50.41 145.322 50.735 145.332 51.065L145.137 51.59C144.857 52.37 144.637 53.035 144.477 53.585C144.317 54.125 144.237 54.61 144.237 55.04C144.237 55.33 144.262 55.565 144.312 55.745ZM142.602 54.095C142.692 53.845 142.802 53.52 142.932 53.12C143.152 52.36 143.362 51.72 143.562 51.2C143.522 51.06 143.432 50.915 143.292 50.765C143.152 50.605 143.007 50.475 142.857 50.375C142.707 50.265 142.602 50.21 142.542 50.21C142.172 50.21 141.777 50.435 141.357 50.885C140.937 51.325 140.582 51.85 140.292 52.46C140.012 53.07 139.872 53.6 139.872 54.05C139.872 54.25 139.932 54.44 140.052 54.62C140.172 54.79 140.302 54.875 140.442 54.875C140.672 54.875 141.037 54.79 141.537 54.62C142.047 54.44 142.402 54.265 142.602 54.095Z" fill="#FAFAFA"/>
</svg>
